<?xml version="1.0" encoding="utf-8" standalone="no"?>
<!DOCTYPE svg PUBLIC "-//W3C//DTD SVG 1.1//EN"
  "http://www.w3.org/Graphics/SVG/1.1/DTD/svg11.dtd">
<svg xmlns:xlink="http://www.w3.org/1999/xlink" width="297.901594pt" height="234.648828pt" viewBox="0 0 297.901594 234.648828" xmlns="http://www.w3.org/2000/svg" version="1.1">
 <metadata>
  <rdf:RDF xmlns:dc="http://purl.org/dc/elements/1.1/" xmlns:cc="http://creativecommons.org/ns#" xmlns:rdf="http://www.w3.org/1999/02/22-rdf-syntax-ns#">
   <cc:Work>
    <dc:type rdf:resource="http://purl.org/dc/dcmitype/StillImage"/>
    <dc:date>2026-07-12T11:56:33.821324</dc:date>
    <dc:format>image/svg+xml</dc:format>
    <dc:creator>
     <cc:Agent>
      <dc:title>Matplotlib v3.10.8, https://matplotlib.org/</dc:title>
     </cc:Agent>
    </dc:creator>
   </cc:Work>
  </rdf:RDF>
 </metadata>
 <defs>
  <style type="text/css">*{stroke-linejoin: round; stroke-linecap: butt}</style>
 </defs>
 <g id="figure_1">
  <g id="patch_1">
   <path d="M 0 234.648828 
L 297.901594 234.648828 
L 297.901594 0 
L 0 0 
z
" style="fill: #ffffff"/>
  </g>
  <g id="axes_1">
   <g id="patch_2">
    <path d="M 28.428438 203.899453 
L 246.104237 203.899453 
L 246.104237 9.859453 
L 28.428438 9.859453 
z
" style="fill: #ffffff"/>
   </g>
   <g id="QuadContourSet_1">
    <path d="M 159.033918 13.093453 
L 162.661847 13.093453 
L 162.661847 9.859453 
L 159.033918 9.859453 
L 155.405988 9.859453 
L 155.405988 13.093453 
z
M 202.569077 13.093453 
L 206.197007 13.093453 
L 206.197007 9.859453 
L 202.569077 9.859453 
L 198.941147 9.859453 
L 198.941147 13.093453 
z
M 246.104237 13.093453 
L 246.104237 9.859453 
L 242.476307 9.859453 
L 242.476307 13.093453 
z
" clip-path="url(#p81bf9400ed)" style="fill: #fff9bd"/>
    <path d="M 32.056368 203.899453 
L 32.056368 200.665453 
L 28.428438 200.665453 
L 28.428438 203.899453 
z
M 32.056368 168.325453 
L 32.056368 165.091453 
L 32.056368 161.857453 
L 28.428438 161.857453 
L 28.428438 165.091453 
L 28.428438 168.325453 
z
M 32.056368 129.517453 
L 32.056368 126.283453 
L 32.056368 123.049453 
L 28.428438 123.049453 
L 28.428438 126.283453 
L 28.428438 129.517453 
z
M 32.056368 100.411453 
L 32.056368 97.177453 
L 32.056368 93.943453 
L 32.056368 90.709453 
L 32.056368 87.475453 
L 32.056368 84.241453 
L 28.428438 84.241453 
L 28.428438 87.475453 
L 28.428438 90.709453 
L 28.428438 93.943453 
L 28.428438 97.177453 
L 28.428438 100.411453 
z
M 115.498758 51.901453 
L 119.126688 51.901453 
L 119.126688 48.667453 
L 119.126688 45.433453 
L 115.498758 45.433453 
L 111.870827 45.433453 
L 111.870827 48.667453 
L 111.870827 51.901453 
z
M 159.033918 51.901453 
L 162.661847 51.901453 
L 162.661847 48.667453 
L 162.661847 45.433453 
L 159.033918 45.433453 
L 155.405988 45.433453 
L 155.405988 48.667453 
L 155.405988 51.901453 
z
M 202.569077 51.901453 
L 206.197007 51.901453 
L 206.197007 48.667453 
L 206.197007 45.433453 
L 202.569077 45.433453 
L 198.941147 45.433453 
L 198.941147 48.667453 
L 198.941147 51.901453 
z
M 246.104237 51.624048 
L 246.104237 48.667453 
L 246.104237 45.433453 
L 242.476307 45.433453 
L 242.476307 48.667453 
L 242.476307 51.901453 
L 243.419879 51.901453 
z
M 115.498758 13.093453 
L 119.126688 13.093453 
L 119.126688 9.859453 
L 115.498758 9.859453 
L 111.870827 9.859453 
L 111.870827 13.093453 
z
" clip-path="url(#p81bf9400ed)" style="fill: #ffec9d"/>
    <path d="M 71.963598 203.899453 
L 75.591528 203.899453 
L 75.591528 200.665453 
L 71.963598 200.665453 
L 68.335667 200.665453 
L 68.335667 203.899453 
z
M 71.963598 168.325453 
L 75.591528 168.325453 
L 75.591528 165.091453 
L 75.591528 161.857453 
L 71.963598 161.857453 
L 68.335667 161.857453 
L 68.335667 165.091453 
L 68.335667 168.325453 
z
M 71.963598 129.517453 
L 75.591528 129.517453 
L 75.591528 126.283453 
L 75.591528 123.049453 
L 71.963598 123.049453 
L 68.335667 123.049453 
L 68.335667 126.283453 
L 68.335667 129.517453 
z
M 115.498758 129.517453 
L 117.444421 129.517453 
L 119.126688 127.744451 
L 119.126688 126.283453 
L 119.126688 123.049453 
L 115.498758 123.049453 
L 111.870827 123.049453 
L 111.870827 126.283453 
L 111.870827 129.517453 
z
M 115.498758 110.113453 
L 119.126688 110.113453 
L 119.126688 106.879453 
L 119.126688 103.645453 
L 119.126688 100.411453 
L 119.126688 97.177453 
L 119.126688 93.943453 
L 119.126688 90.709453 
L 119.126688 87.475453 
L 119.126688 84.241453 
L 115.498758 84.241453 
L 111.870827 84.241453 
L 111.870827 87.475453 
L 111.870827 90.709453 
L 111.870827 93.943453 
L 111.870827 97.177453 
L 111.870827 100.411453 
L 111.870827 103.645453 
L 111.870827 106.879453 
L 111.870827 110.113453 
z
M 157.360283 100.411453 
L 159.033918 99.58721 
L 162.661847 97.867023 
L 162.661847 97.177453 
L 162.661847 93.943453 
L 162.661847 90.709453 
L 162.661847 87.475453 
L 162.661847 84.241453 
L 159.033918 84.241453 
L 155.405988 84.241453 
L 155.405988 87.475453 
L 155.405988 90.709453 
L 155.405988 93.943453 
L 155.405988 97.177453 
L 155.405988 100.411453 
L 155.405988 101.402028 
z
M 71.963598 100.411453 
L 75.591528 100.411453 
L 75.591528 97.177453 
L 75.591528 93.943453 
L 75.591528 90.709453 
L 75.591528 87.475453 
L 75.591528 84.241453 
L 71.963598 84.241453 
L 68.335667 84.241453 
L 68.335667 87.475453 
L 68.335667 90.709453 
L 68.335667 93.943453 
L 68.335667 97.177453 
L 68.335667 100.411453 
z
M 199.321432 84.241453 
L 198.941147 84.241453 
L 198.941147 84.35778 
z
M 32.056368 51.901453 
L 32.056368 48.667453 
L 32.056368 45.433453 
L 28.428438 45.433453 
L 28.428438 48.667453 
L 28.428438 51.901453 
z
M 71.963598 51.901453 
L 75.591528 51.901453 
L 75.591528 48.667453 
L 75.591528 45.433453 
L 71.963598 45.433453 
L 68.335667 45.433453 
L 68.335667 48.667453 
L 68.335667 51.901453 
z
M 246.104237 51.901453 
L 246.104237 51.624048 
L 243.419879 51.901453 
z
M 32.056368 13.093453 
L 32.056368 9.859453 
L 28.428438 9.859453 
L 28.428438 13.093453 
z
M 71.963598 13.093453 
L 75.591528 13.093453 
L 75.591528 9.859453 
L 71.963598 9.859453 
L 68.335667 9.859453 
L 68.335667 13.093453 
z
" clip-path="url(#p81bf9400ed)" style="fill: #fedd7e"/>
    <path d="M 115.498758 168.325453 
L 119.126688 168.325453 
L 119.126688 165.091453 
L 119.126688 161.857453 
L 115.498758 161.857453 
L 111.870827 161.857453 
L 111.870827 165.091453 
L 111.870827 168.325453 
z
M 119.126688 129.517453 
L 119.126688 127.744451 
L 117.444421 129.517453 
z
M 159.033918 129.517453 
L 162.661847 129.517453 
L 162.661847 126.283453 
L 162.661847 123.049453 
L 159.033918 123.049453 
L 155.405988 123.049453 
L 155.405988 126.283453 
L 155.405988 129.517453 
z
M 159.033918 110.113453 
L 162.661847 110.113453 
L 162.661847 106.879453 
L 162.661847 103.645453 
L 162.661847 100.411453 
L 162.661847 97.867023 
L 159.033918 99.58721 
L 157.360283 100.411453 
L 155.405988 101.402028 
L 155.405988 103.645453 
L 155.405988 106.879453 
L 155.405988 110.113453 
z
M 202.569077 100.411453 
L 206.197007 100.411453 
L 206.197007 97.177453 
L 206.197007 93.943453 
L 206.197007 90.709453 
L 206.197007 87.475453 
L 206.197007 84.241453 
L 202.569077 84.241453 
L 199.321432 84.241453 
L 198.941147 84.35778 
L 198.941147 87.475453 
L 198.941147 90.709453 
L 198.941147 93.943453 
L 198.941147 97.177453 
L 198.941147 100.411453 
z
M 246.104237 92.388763 
L 246.104237 90.709453 
L 246.104237 87.475453 
L 246.104237 84.241453 
L 242.476307 84.241453 
L 242.476307 87.475453 
L 242.476307 90.709453 
L 242.476307 93.570395 
z
" clip-path="url(#p81bf9400ed)" style="fill: #fec45f"/>
    <path d="M 115.498758 203.899453 
L 119.126688 203.899453 
L 119.126688 200.665453 
L 115.498758 200.665453 
L 111.870827 200.665453 
L 111.870827 203.899453 
z
M 159.033918 167.337044 
L 161.322824 165.091453 
L 162.661847 163.808329 
L 162.661847 161.857453 
L 159.033918 161.857453 
L 155.405988 161.857453 
L 155.405988 165.091453 
L 155.405988 168.325453 
L 158.04792 168.325453 
z
M 202.569077 129.517453 
L 206.197007 129.517453 
L 206.197007 126.283453 
L 206.197007 123.049453 
L 202.569077 123.049453 
L 198.941147 123.049453 
L 198.941147 126.283453 
L 198.941147 129.517453 
z
M 246.104237 110.113453 
L 246.104237 106.879453 
L 246.104237 103.645453 
L 246.104237 100.411453 
L 246.104237 97.177453 
L 246.104237 93.943453 
L 246.104237 92.388763 
L 242.476307 93.570395 
L 242.476307 93.943453 
L 242.476307 97.177453 
L 242.476307 100.411453 
L 242.476307 103.645453 
L 242.476307 106.879453 
L 242.476307 110.113453 
z
" clip-path="url(#p81bf9400ed)" style="fill: #fea848"/>
    <path d="M 156.32173 200.665453 
L 155.405988 200.665453 
L 155.405988 201.781497 
z
M 159.033918 168.325453 
L 162.661847 168.325453 
L 162.661847 165.091453 
L 162.661847 163.808329 
L 161.322824 165.091453 
L 159.033918 167.337044 
L 158.04792 168.325453 
z
M 246.104237 129.517453 
L 246.104237 126.283453 
L 246.104237 123.049453 
L 242.476307 123.049453 
L 242.476307 126.283453 
L 242.476307 129.517453 
z
" clip-path="url(#p81bf9400ed)" style="fill: #fd8c3c"/>
    <path d="M 159.033918 203.899453 
L 162.661847 203.899453 
L 162.661847 200.665453 
L 159.033918 200.665453 
L 156.32173 200.665453 
L 155.405988 201.781497 
L 155.405988 203.899453 
z
" clip-path="url(#p81bf9400ed)" style="fill: #fc5f2f"/>
    <path d="M 202.569077 201.482832 
L 203.441339 200.665453 
L 202.569077 200.665453 
L 198.941147 200.665453 
L 198.941147 203.899453 
L 200.029809 203.899453 
z
M 246.104237 167.234651 
L 246.104237 165.091453 
L 246.104237 161.857453 
L 242.476307 161.857453 
L 242.476307 165.091453 
L 242.476307 168.325453 
L 244.457674 168.325453 
z
" clip-path="url(#p81bf9400ed)" style="fill: #f13624"/>
    <path d="M 202.569077 203.899453 
L 206.197007 203.899453 
L 206.197007 200.665453 
L 203.441339 200.665453 
L 202.569077 201.482832 
L 200.029809 203.899453 
z
M 246.104237 168.325453 
L 246.104237 167.234651 
L 244.457674 168.325453 
z
" clip-path="url(#p81bf9400ed)" style="fill: #dc151e"/>
    <path d="M 246.104237 201.958457 
L 246.104237 200.665453 
L 242.476307 200.665453 
L 242.476307 203.899453 
L 243.677719 203.899453 
z
" clip-path="url(#p81bf9400ed)" style="fill: #c00225"/>
    <path d="M 246.104237 203.899453 
L 246.104237 201.958457 
L 243.677719 203.899453 
z
" clip-path="url(#p81bf9400ed)" style="fill: #950026"/>
   </g>
   <g id="PathCollection_1">
    <path d="M 28.428438 206.857493 
C 29.212919 206.857493 29.965375 206.545815 30.520088 205.991103 
C 31.0748 205.436391 31.386477 204.683934 31.386477 203.899453 
C 31.386477 203.114972 31.0748 202.362515 30.520088 201.807803 
C 29.965375 201.253091 29.212919 200.941413 28.428438 200.941413 
C 27.643956 200.941413 26.8915 201.253091 26.336787 201.807803 
C 25.782075 202.362515 25.470398 203.114972 25.470398 203.899453 
C 25.470398 204.683934 25.782075 205.436391 26.336787 205.991103 
C 26.8915 206.545815 27.643956 206.857493 28.428438 206.857493 
L 28.428438 206.857493 
z
" clip-path="url(#p81bf9400ed)" style="fill: none; stroke: #000000; stroke-opacity: 0.45; stroke-width: 0.32"/>
    <path d="M 28.428438 166.688006 
C 28.851848 166.688006 29.257974 166.519783 29.557371 166.220386 
C 29.856767 165.92099 30.02499 165.514864 30.02499 165.091453 
C 30.02499 164.668042 29.856767 164.261916 29.557371 163.96252 
C 29.257974 163.663123 28.851848 163.4949 28.428438 163.4949 
C 28.005027 163.4949 27.598901 163.663123 27.299504 163.96252 
C 27.000108 164.261916 26.831885 164.668042 26.831885 165.091453 
C 26.831885 165.514864 27.000108 165.92099 27.299504 166.220386 
C 27.598901 166.519783 28.005027 166.688006 28.428438 166.688006 
L 28.428438 166.688006 
z
" clip-path="url(#p81bf9400ed)" style="fill: none; stroke: #000000; stroke-opacity: 0.45; stroke-width: 0.32"/>
    <path d="M 28.428438 127.835636 
C 28.840081 127.835636 29.23492 127.672088 29.525996 127.381012 
C 29.817072 127.089936 29.98062 126.695097 29.98062 126.283453 
C 29.98062 125.87181 29.817072 125.47697 29.525996 125.185894 
C 29.23492 124.894818 28.840081 124.731271 28.428438 124.731271 
C 28.016794 124.731271 27.621955 124.894818 27.330879 125.185894 
C 27.039803 125.47697 26.876255 125.87181 26.876255 126.283453 
C 26.876255 126.695097 27.039803 127.089936 27.330879 127.381012 
C 27.621955 127.672088 28.016794 127.835636 28.428438 127.835636 
L 28.428438 127.835636 
z
" clip-path="url(#p81bf9400ed)" style="fill: none; stroke: #000000; stroke-opacity: 0.45; stroke-width: 0.32"/>
    <path d="M 28.428438 98.682462 
C 28.82757 98.682462 29.21041 98.523885 29.492639 98.241655 
C 29.774869 97.959425 29.933446 97.576586 29.933446 97.177453 
C 29.933446 96.77832 29.774869 96.395481 29.492639 96.113251 
C 29.21041 95.831022 28.82757 95.672444 28.428438 95.672444 
C 28.029305 95.672444 27.646465 95.831022 27.364236 96.113251 
C 27.082006 96.395481 26.923429 96.77832 26.923429 97.177453 
C 26.923429 97.576586 27.082006 97.959425 27.364236 98.241655 
C 27.646465 98.523885 28.029305 98.682462 28.428438 98.682462 
L 28.428438 98.682462 
z
" clip-path="url(#p81bf9400ed)" style="fill: none; stroke: #000000; stroke-opacity: 0.45; stroke-width: 0.32"/>
    <path d="M 28.428438 88.932391 
C 28.814822 88.932391 29.185433 88.778879 29.458648 88.505664 
C 29.731863 88.232449 29.885375 87.861837 29.885375 87.475453 
C 29.885375 87.089069 29.731863 86.718458 29.458648 86.445243 
C 29.185433 86.172028 28.814822 86.018516 28.428438 86.018516 
C 28.042053 86.018516 27.671442 86.172028 27.398227 86.445243 
C 27.125012 86.718458 26.9715 87.089069 26.9715 87.475453 
C 26.9715 87.861837 27.125012 88.232449 27.398227 88.505664 
C 27.671442 88.778879 28.042053 88.932391 28.428438 88.932391 
L 28.428438 88.932391 
z
" clip-path="url(#p81bf9400ed)" style="fill: none; stroke: #000000; stroke-opacity: 0.45; stroke-width: 0.32"/>
    <path d="M 28.428438 50.05683 
C 28.796905 50.05683 29.15033 49.910437 29.410875 49.649891 
C 29.671421 49.389345 29.817815 49.03592 29.817815 48.667453 
C 29.817815 48.298986 29.671421 47.945561 29.410875 47.685015 
C 29.15033 47.42447 28.796905 47.278076 28.428438 47.278076 
C 28.05997 47.278076 27.706545 47.42447 27.446 47.685015 
C 27.185454 47.945561 27.03906 48.298986 27.03906 48.667453 
C 27.03906 49.03592 27.185454 49.389345 27.446 49.649891 
C 27.706545 49.910437 28.05997 50.05683 28.428438 50.05683 
L 28.428438 50.05683 
z
" clip-path="url(#p81bf9400ed)" style="fill: none; stroke: #000000; stroke-opacity: 0.45; stroke-width: 0.32"/>
    <path d="M 28.428438 11.443152 
C 28.848439 11.443152 29.251296 11.276284 29.548282 10.979298 
C 29.845268 10.682311 30.012137 10.279455 30.012137 9.859453 
C 30.012137 9.439451 29.845268 9.036595 29.548282 8.739609 
C 29.251296 8.442622 28.848439 8.275754 28.428438 8.275754 
C 28.008436 8.275754 27.605579 8.442622 27.308593 8.739609 
C 27.011607 9.036595 26.844738 9.439451 26.844738 9.859453 
C 26.844738 10.279455 27.011607 10.682311 27.308593 10.979298 
C 27.605579 11.276284 28.008436 11.443152 28.428438 11.443152 
L 28.428438 11.443152 
z
" clip-path="url(#p81bf9400ed)" style="fill: none; stroke: #000000; stroke-opacity: 0.45; stroke-width: 0.32"/>
    <path d="M 71.963598 206.027577 
C 72.527983 206.027577 73.069328 205.803345 73.468408 205.404264 
C 73.867489 205.005183 74.091721 204.463838 74.091721 203.899453 
C 74.091721 203.335068 73.867489 202.793723 73.468408 202.394642 
C 73.069328 201.995562 72.527983 201.771329 71.963598 201.771329 
C 71.399212 201.771329 70.857867 201.995562 70.458787 202.394642 
C 70.059706 202.793723 69.835474 203.335068 69.835474 203.899453 
C 69.835474 204.463838 70.059706 205.005183 70.458787 205.404264 
C 70.857867 205.803345 71.399212 206.027577 71.963598 206.027577 
L 71.963598 206.027577 
z
" clip-path="url(#p81bf9400ed)" style="fill: none; stroke: #000000; stroke-opacity: 0.45; stroke-width: 0.32"/>
    <path d="M 71.963598 167.040463 
C 72.480481 167.040463 72.976264 166.835103 73.341755 166.469611 
C 73.707247 166.104119 73.912607 165.608336 73.912607 165.091453 
C 73.912607 164.57457 73.707247 164.078787 73.341755 163.713295 
C 72.976264 163.347804 72.480481 163.142444 71.963598 163.142444 
C 71.446714 163.142444 70.950931 163.347804 70.58544 163.713295 
C 70.219948 164.078787 70.014588 164.57457 70.014588 165.091453 
C 70.014588 165.608336 70.219948 166.104119 70.58544 166.469611 
C 70.950931 166.835103 71.446714 167.040463 71.963598 167.040463 
L 71.963598 167.040463 
z
" clip-path="url(#p81bf9400ed)" style="fill: none; stroke: #000000; stroke-opacity: 0.45; stroke-width: 0.32"/>
    <path d="M 71.963598 127.964051 
C 72.409297 127.964051 72.836802 127.786972 73.15196 127.471815 
C 73.467117 127.156658 73.644195 126.729153 73.644195 126.283453 
C 73.644195 125.837753 73.467117 125.410248 73.15196 125.095091 
C 72.836802 124.779934 72.409297 124.602855 71.963598 124.602855 
C 71.517898 124.602855 71.090393 124.779934 70.775235 125.095091 
C 70.460078 125.410248 70.283 125.837753 70.283 126.283453 
C 70.283 126.729153 70.460078 127.156658 70.775235 127.471815 
C 71.090393 127.786972 71.517898 127.964051 71.963598 127.964051 
L 71.963598 127.964051 
z
" clip-path="url(#p81bf9400ed)" style="fill: none; stroke: #000000; stroke-opacity: 0.45; stroke-width: 0.32"/>
    <path d="M 71.963598 98.645868 
C 72.353026 98.645868 72.726556 98.491147 73.001924 98.215779 
C 73.277291 97.940412 73.432013 97.566881 73.432013 97.177453 
C 73.432013 96.788025 73.277291 96.414494 73.001924 96.139127 
C 72.726556 95.863759 72.353026 95.709038 71.963598 95.709038 
C 71.574169 95.709038 71.200639 95.863759 70.925271 96.139127 
C 70.649904 96.414494 70.495182 96.788025 70.495182 97.177453 
C 70.495182 97.566881 70.649904 97.940412 70.925271 98.215779 
C 71.200639 98.491147 71.574169 98.645868 71.963598 98.645868 
L 71.963598 98.645868 
z
" clip-path="url(#p81bf9400ed)" style="fill: none; stroke: #000000; stroke-opacity: 0.45; stroke-width: 0.32"/>
    <path d="M 71.963598 88.952149 
C 72.355222 88.952149 72.730859 88.796555 73.007779 88.519635 
C 73.284699 88.242715 73.440293 87.867077 73.440293 87.475453 
C 73.440293 87.083829 73.284699 86.708192 73.007779 86.431271 
C 72.730859 86.154351 72.355222 85.998757 71.963598 85.998757 
C 71.571973 85.998757 71.196336 86.154351 70.919416 86.431271 
C 70.642496 86.708192 70.486902 87.083829 70.486902 87.475453 
C 70.486902 87.867077 70.642496 88.242715 70.919416 88.519635 
C 71.196336 88.796555 71.571973 88.952149 71.963598 88.952149 
L 71.963598 88.952149 
z
" clip-path="url(#p81bf9400ed)" style="fill: none; stroke: #000000; stroke-opacity: 0.45; stroke-width: 0.32"/>
    <path d="M 71.963598 50.068356 
C 72.335121 50.068356 72.691479 49.920748 72.954186 49.658041 
C 73.216893 49.395334 73.364501 49.038977 73.364501 48.667453 
C 73.364501 48.295929 73.216893 47.939572 72.954186 47.676865 
C 72.691479 47.414158 72.335121 47.26655 71.963598 47.26655 
C 71.592074 47.26655 71.235716 47.414158 70.973009 47.676865 
C 70.710302 47.939572 70.562694 48.295929 70.562694 48.667453 
C 70.562694 49.038977 70.710302 49.395334 70.973009 49.658041 
C 71.235716 49.920748 71.592074 50.068356 71.963598 50.068356 
L 71.963598 50.068356 
z
" clip-path="url(#p81bf9400ed)" style="fill: none; stroke: #000000; stroke-opacity: 0.45; stroke-width: 0.32"/>
    <path d="M 71.963598 11.274825 
C 72.338959 11.274825 72.698996 11.125693 72.964417 10.860272 
C 73.229837 10.594852 73.37897 10.234814 73.37897 9.859453 
C 73.37897 9.484092 73.229837 9.124054 72.964417 8.858634 
C 72.698996 8.593214 72.338959 8.444081 71.963598 8.444081 
C 71.588236 8.444081 71.228199 8.593214 70.962778 8.858634 
C 70.697358 9.124054 70.548225 9.484092 70.548225 9.859453 
C 70.548225 10.234814 70.697358 10.594852 70.962778 10.860272 
C 71.228199 11.125693 71.588236 11.274825 71.963598 11.274825 
L 71.963598 11.274825 
z
" clip-path="url(#p81bf9400ed)" style="fill: none; stroke: #000000; stroke-opacity: 0.45; stroke-width: 0.32"/>
    <path d="M 115.498758 206.203841 
C 116.109888 206.203841 116.696071 205.961037 117.128206 205.528902 
C 117.560341 205.096767 117.803146 204.510584 117.803146 203.899453 
C 117.803146 203.288322 117.560341 202.702139 117.128206 202.270005 
C 116.696071 201.83787 116.109888 201.595065 115.498758 201.595065 
C 114.887627 201.595065 114.301444 201.83787 113.869309 202.270005 
C 113.437174 202.702139 113.194369 203.288322 113.194369 203.899453 
C 113.194369 204.510584 113.437174 205.096767 113.869309 205.528902 
C 114.301444 205.961037 114.887627 206.203841 115.498758 206.203841 
L 115.498758 206.203841 
z
" clip-path="url(#p81bf9400ed)" style="fill: none; stroke: #000000; stroke-opacity: 0.45; stroke-width: 0.32"/>
    <path d="M 115.498758 166.850756 
C 115.96533 166.850756 116.412856 166.665385 116.742772 166.335468 
C 117.072689 166.005551 117.25806 165.558026 117.25806 165.091453 
C 117.25806 164.624881 117.072689 164.177355 116.742772 163.847438 
C 116.412856 163.517522 115.96533 163.33215 115.498758 163.33215 
C 115.032185 163.33215 114.584659 163.517522 114.254743 163.847438 
C 113.924826 164.177355 113.739455 164.624881 113.739455 165.091453 
C 113.739455 165.558026 113.924826 166.005551 114.254743 166.335468 
C 114.584659 166.665385 115.032185 166.850756 115.498758 166.850756 
L 115.498758 166.850756 
z
" clip-path="url(#p81bf9400ed)" style="fill: none; stroke: #000000; stroke-opacity: 0.45; stroke-width: 0.32"/>
    <path d="M 115.498758 128.416902 
C 116.064555 128.416902 116.607254 128.192108 117.007334 127.792029 
C 117.407413 127.39195 117.632206 126.84925 117.632206 126.283453 
C 117.632206 125.717656 117.407413 125.174956 117.007334 124.774877 
C 116.607254 124.374798 116.064555 124.150004 115.498758 124.150004 
C 114.93296 124.150004 114.390261 124.374798 113.990181 124.774877 
C 113.590102 125.174956 113.365309 125.717656 113.365309 126.283453 
C 113.365309 126.84925 113.590102 127.39195 113.990181 127.792029 
C 114.390261 128.192108 114.93296 128.416902 115.498758 128.416902 
L 115.498758 128.416902 
z
" clip-path="url(#p81bf9400ed)" style="fill: none; stroke: #000000; stroke-opacity: 0.45; stroke-width: 0.32"/>
    <path d="M 115.498758 108.336391 
C 115.885142 108.336391 116.255753 108.182879 116.528968 107.909664 
C 116.802183 107.636449 116.955695 107.265837 116.955695 106.879453 
C 116.955695 106.493069 116.802183 106.122458 116.528968 105.849243 
C 116.255753 105.576028 115.885142 105.422516 115.498758 105.422516 
C 115.112373 105.422516 114.741762 105.576028 114.468547 105.849243 
C 114.195332 106.122458 114.04182 106.493069 114.04182 106.879453 
C 114.04182 107.265837 114.195332 107.636449 114.468547 107.909664 
C 114.741762 108.182879 115.112373 108.336391 115.498758 108.336391 
L 115.498758 108.336391 
z
" clip-path="url(#p81bf9400ed)" style="fill: none; stroke: #000000; stroke-opacity: 0.45; stroke-width: 0.32"/>
    <path d="M 115.498758 98.811409 
C 115.932088 98.811409 116.347728 98.639245 116.654138 98.332834 
C 116.960549 98.026423 117.132713 97.610783 117.132713 97.177453 
C 117.132713 96.744123 116.960549 96.328483 116.654138 96.022072 
C 116.347728 95.715662 115.932088 95.543498 115.498758 95.543498 
C 115.065427 95.543498 114.649787 95.715662 114.343377 96.022072 
C 114.036966 96.328483 113.864802 96.744123 113.864802 97.177453 
C 113.864802 97.610783 114.036966 98.026423 114.343377 98.332834 
C 114.649787 98.639245 115.065427 98.811409 115.498758 98.811409 
L 115.498758 98.811409 
z
" clip-path="url(#p81bf9400ed)" style="fill: none; stroke: #000000; stroke-opacity: 0.45; stroke-width: 0.32"/>
    <path d="M 115.498758 89.271049 
C 115.974955 89.271049 116.431713 89.081854 116.768436 88.745131 
C 117.105158 88.408409 117.294354 87.951651 117.294354 87.475453 
C 117.294354 86.999255 117.105158 86.542497 116.768436 86.205775 
C 116.431713 85.869052 115.974955 85.679857 115.498758 85.679857 
C 115.02256 85.679857 114.565802 85.869052 114.229079 86.205775 
C 113.892357 86.542497 113.703161 86.999255 113.703161 87.475453 
C 113.703161 87.951651 113.892357 88.408409 114.229079 88.745131 
C 114.565802 89.081854 115.02256 89.271049 115.498758 89.271049 
L 115.498758 89.271049 
z
" clip-path="url(#p81bf9400ed)" style="fill: none; stroke: #000000; stroke-opacity: 0.45; stroke-width: 0.32"/>
    <path d="M 115.498758 50.245481 
C 115.917255 50.245481 116.318669 50.07921 116.614592 49.783287 
C 116.910515 49.487365 117.076786 49.085951 117.076786 48.667453 
C 117.076786 48.248955 116.910515 47.847542 116.614592 47.551619 
C 116.318669 47.255696 115.917255 47.089425 115.498758 47.089425 
C 115.08026 47.089425 114.678846 47.255696 114.382923 47.551619 
C 114.087 47.847542 113.920729 48.248955 113.920729 48.667453 
C 113.920729 49.085951 114.087 49.487365 114.382923 49.783287 
C 114.678846 50.07921 115.08026 50.245481 115.498758 50.245481 
L 115.498758 50.245481 
z
" clip-path="url(#p81bf9400ed)" style="fill: none; stroke: #000000; stroke-opacity: 0.45; stroke-width: 0.32"/>
    <path d="M 115.498758 11.338851 
C 115.891099 11.338851 116.267423 11.182973 116.54485 10.905546 
C 116.822277 10.628119 116.978156 10.251794 116.978156 9.859453 
C 116.978156 9.467112 116.822277 9.090788 116.54485 8.813361 
C 116.267423 8.535934 115.891099 8.380055 115.498758 8.380055 
C 115.106416 8.380055 114.730092 8.535934 114.452665 8.813361 
C 114.175238 9.090788 114.019359 9.467112 114.019359 9.859453 
C 114.019359 10.251794 114.175238 10.628119 114.452665 10.905546 
C 114.730092 11.182973 115.106416 11.338851 115.498758 11.338851 
L 115.498758 11.338851 
z
" clip-path="url(#p81bf9400ed)" style="fill: none; stroke: #000000; stroke-opacity: 0.45; stroke-width: 0.32"/>
    <path d="M 159.033918 206.035018 
C 159.600276 206.035018 160.143514 205.810001 160.54399 205.409525 
C 160.944466 205.00905 161.169482 204.465811 161.169482 203.899453 
C 161.169482 203.333095 160.944466 202.789857 160.54399 202.389381 
C 160.143514 201.988905 159.600276 201.763888 159.033918 201.763888 
C 158.467559 201.763888 157.924321 201.988905 157.523845 202.389381 
C 157.123369 202.789857 156.898353 203.333095 156.898353 203.899453 
C 156.898353 204.465811 157.123369 205.00905 157.523845 205.409525 
C 157.924321 205.810001 158.467559 206.035018 159.033918 206.035018 
L 159.033918 206.035018 
z
" clip-path="url(#p81bf9400ed)" style="fill: none; stroke: #000000; stroke-opacity: 0.45; stroke-width: 0.32"/>
    <path d="M 159.033918 166.647757 
C 159.446654 166.647757 159.842541 166.483775 160.13439 166.191926 
C 160.426239 165.900077 160.590221 165.50419 160.590221 165.091453 
C 160.590221 164.678717 160.426239 164.282829 160.13439 163.99098 
C 159.842541 163.699132 159.446654 163.53515 159.033918 163.53515 
C 158.621181 163.53515 158.225294 163.699132 157.933445 163.99098 
C 157.641596 164.282829 157.477614 164.678717 157.477614 165.091453 
C 157.477614 165.50419 157.641596 165.900077 157.933445 166.191926 
C 158.225294 166.483775 158.621181 166.647757 159.033918 166.647757 
L 159.033918 166.647757 
z
" clip-path="url(#p81bf9400ed)" style="fill: none; stroke: #000000; stroke-opacity: 0.45; stroke-width: 0.32"/>
    <path d="M 159.033918 128.189253 
C 159.539342 128.189253 160.024133 127.988446 160.381522 127.631057 
C 160.73891 127.273668 160.939718 126.788877 160.939718 126.283453 
C 160.939718 125.778029 160.73891 125.293238 160.381522 124.935849 
C 160.024133 124.57846 159.539342 124.377653 159.033918 124.377653 
C 158.528493 124.377653 158.043702 124.57846 157.686313 124.935849 
C 157.328925 125.293238 157.128117 125.778029 157.128117 126.283453 
C 157.128117 126.788877 157.328925 127.273668 157.686313 127.631057 
C 158.043702 127.988446 158.528493 128.189253 159.033918 128.189253 
L 159.033918 128.189253 
z
" clip-path="url(#p81bf9400ed)" style="fill: none; stroke: #000000; stroke-opacity: 0.45; stroke-width: 0.32"/>
    <path d="M 159.033918 108.333437 
C 159.419519 108.333437 159.789378 108.180236 160.062039 107.907575 
C 160.3347 107.634914 160.487901 107.265054 160.487901 106.879453 
C 160.487901 106.493852 160.3347 106.123992 160.062039 105.851331 
C 159.789378 105.57867 159.419519 105.425469 159.033918 105.425469 
C 158.648316 105.425469 158.278457 105.57867 158.005796 105.851331 
C 157.733135 106.123992 157.579934 106.493852 157.579934 106.879453 
C 157.579934 107.265054 157.733135 107.634914 158.005796 107.907575 
C 158.278457 108.180236 158.648316 108.333437 159.033918 108.333437 
L 159.033918 108.333437 
z
" clip-path="url(#p81bf9400ed)" style="fill: none; stroke: #000000; stroke-opacity: 0.45; stroke-width: 0.32"/>
    <path d="M 159.033918 98.782884 
C 159.459683 98.782884 159.868067 98.613726 160.169129 98.312664 
C 160.47019 98.011603 160.639348 97.603218 160.639348 97.177453 
C 160.639348 96.751688 160.47019 96.343304 160.169129 96.042242 
C 159.868067 95.741181 159.459683 95.572022 159.033918 95.572022 
C 158.608152 95.572022 158.199768 95.741181 157.898706 96.042242 
C 157.597645 96.343304 157.428487 96.751688 157.428487 97.177453 
C 157.428487 97.603218 157.597645 98.011603 157.898706 98.312664 
C 158.199768 98.613726 158.608152 98.782884 159.033918 98.782884 
L 159.033918 98.782884 
z
" clip-path="url(#p81bf9400ed)" style="fill: none; stroke: #000000; stroke-opacity: 0.45; stroke-width: 0.32"/>
    <path d="M 159.033918 89.547337 
C 159.583387 89.547337 160.110426 89.32903 160.49896 88.940496 
C 160.887494 88.551962 161.105801 88.024923 161.105801 87.475453 
C 161.105801 86.925983 160.887494 86.398944 160.49896 86.01041 
C 160.110426 85.621876 159.583387 85.40357 159.033918 85.40357 
C 158.484448 85.40357 157.957409 85.621876 157.568875 86.01041 
C 157.180341 86.398944 156.962034 86.925983 156.962034 87.475453 
C 156.962034 88.024923 157.180341 88.551962 157.568875 88.940496 
C 157.957409 89.32903 158.484448 89.547337 159.033918 89.547337 
L 159.033918 89.547337 
z
" clip-path="url(#p81bf9400ed)" style="fill: none; stroke: #000000; stroke-opacity: 0.45; stroke-width: 0.32"/>
    <path d="M 159.033918 50.403069 
C 159.494208 50.403069 159.935709 50.220193 160.261183 49.894719 
C 160.586658 49.569244 160.769533 49.127744 160.769533 48.667453 
C 160.769533 48.207162 160.586658 47.765662 160.261183 47.440187 
C 159.935709 47.114713 159.494208 46.931837 159.033918 46.931837 
C 158.573627 46.931837 158.132126 47.114713 157.806652 47.440187 
C 157.481177 47.765662 157.298302 48.207162 157.298302 48.667453 
C 157.298302 49.127744 157.481177 49.569244 157.806652 49.894719 
C 158.132126 50.220193 158.573627 50.403069 159.033918 50.403069 
L 159.033918 50.403069 
z
" clip-path="url(#p81bf9400ed)" style="fill: none; stroke: #000000; stroke-opacity: 0.45; stroke-width: 0.32"/>
    <path d="M 159.033918 11.366895 
C 159.433696 11.366895 159.817154 11.208061 160.09984 10.925375 
C 160.382526 10.642689 160.541359 10.259231 160.541359 9.859453 
C 160.541359 9.459675 160.382526 9.076217 160.09984 8.793531 
C 159.817154 8.510845 159.433696 8.352011 159.033918 8.352011 
C 158.634139 8.352011 158.250681 8.510845 157.967995 8.793531 
C 157.685309 9.076217 157.526476 9.459675 157.526476 9.859453 
C 157.526476 10.259231 157.685309 10.642689 157.967995 10.925375 
C 158.250681 11.208061 158.634139 11.366895 159.033918 11.366895 
L 159.033918 11.366895 
z
" clip-path="url(#p81bf9400ed)" style="fill: none; stroke: #000000; stroke-opacity: 0.45; stroke-width: 0.32"/>
    <path d="M 202.569077 205.69715 
C 203.045832 205.69715 203.503125 205.507734 203.840241 205.170617 
C 204.177358 204.8335 204.366775 204.376208 204.366775 203.899453 
C 204.366775 203.422698 204.177358 202.965406 203.840241 202.628289 
C 203.503125 202.291173 203.045832 202.101756 202.569077 202.101756 
C 202.092323 202.101756 201.63503 202.291173 201.297914 202.628289 
C 200.960797 202.965406 200.77138 203.422698 200.77138 203.899453 
C 200.77138 204.376208 200.960797 204.8335 201.297914 205.170617 
C 201.63503 205.507734 202.092323 205.69715 202.569077 205.69715 
L 202.569077 205.69715 
z
" clip-path="url(#p81bf9400ed)" style="fill: none; stroke: #000000; stroke-opacity: 0.45; stroke-width: 0.32"/>
    <path d="M 202.569077 127.847835 
C 202.983956 127.847835 203.381899 127.683001 203.675262 127.389638 
C 203.968626 127.096274 204.133459 126.698332 204.133459 126.283453 
C 204.133459 125.868574 203.968626 125.470632 203.675262 125.177268 
C 203.381899 124.883905 202.983956 124.719072 202.569077 124.719072 
C 202.154199 124.719072 201.756256 124.883905 201.462893 125.177268 
C 201.169529 125.470632 201.004696 125.868574 201.004696 126.283453 
C 201.004696 126.698332 201.169529 127.096274 201.462893 127.389638 
C 201.756256 127.683001 202.154199 127.847835 202.569077 127.847835 
L 202.569077 127.847835 
z
" clip-path="url(#p81bf9400ed)" style="fill: none; stroke: #000000; stroke-opacity: 0.45; stroke-width: 0.32"/>
    <path d="M 202.569077 98.656851 
C 202.961419 98.656851 203.337743 98.500973 203.61517 98.223546 
C 203.892597 97.946119 204.048476 97.569794 204.048476 97.177453 
C 204.048476 96.785112 203.892597 96.408788 203.61517 96.131361 
C 203.337743 95.853934 202.961419 95.698055 202.569077 95.698055 
C 202.176736 95.698055 201.800412 95.853934 201.522985 96.131361 
C 201.245558 96.408788 201.089679 96.785112 201.089679 97.177453 
C 201.089679 97.569794 201.245558 97.946119 201.522985 98.223546 
C 201.800412 98.500973 202.176736 98.656851 202.569077 98.656851 
L 202.569077 98.656851 
z
" clip-path="url(#p81bf9400ed)" style="fill: none; stroke: #000000; stroke-opacity: 0.45; stroke-width: 0.32"/>
    <path d="M 202.569077 89.153218 
C 203.014026 89.153218 203.44081 88.976438 203.755437 88.661812 
C 204.070063 88.347186 204.246843 87.920402 204.246843 87.475453 
C 204.246843 87.030505 204.070063 86.60372 203.755437 86.289094 
C 203.44081 85.974468 203.014026 85.797688 202.569077 85.797688 
C 202.124129 85.797688 201.697345 85.974468 201.382718 86.289094 
C 201.068092 86.60372 200.891312 87.030505 200.891312 87.475453 
C 200.891312 87.920402 201.068092 88.347186 201.382718 88.661812 
C 201.697345 88.976438 202.124129 89.153218 202.569077 89.153218 
L 202.569077 89.153218 
z
" clip-path="url(#p81bf9400ed)" style="fill: none; stroke: #000000; stroke-opacity: 0.45; stroke-width: 0.32"/>
    <path d="M 202.569077 50.598863 
C 203.081293 50.598863 203.572599 50.395358 203.934791 50.033166 
C 204.296982 49.670975 204.500488 49.179669 204.500488 48.667453 
C 204.500488 48.155237 204.296982 47.663931 203.934791 47.30174 
C 203.572599 46.939549 203.081293 46.736043 202.569077 46.736043 
C 202.056862 46.736043 201.565556 46.939549 201.203364 47.30174 
C 200.841173 47.663931 200.637667 48.155237 200.637667 48.667453 
C 200.637667 49.179669 200.841173 49.670975 201.203364 50.033166 
C 201.565556 50.395358 202.056862 50.598863 202.569077 50.598863 
L 202.569077 50.598863 
z
" clip-path="url(#p81bf9400ed)" style="fill: none; stroke: #000000; stroke-opacity: 0.45; stroke-width: 0.32"/>
    <path d="M 202.569077 11.506048 
C 203.005759 11.506048 203.424615 11.332552 203.733396 11.023771 
C 204.042176 10.71499 204.215672 10.296135 204.215672 9.859453 
C 204.215672 9.422771 204.042176 9.003916 203.733396 8.695135 
C 203.424615 8.386354 203.005759 8.212859 202.569077 8.212859 
C 202.132396 8.212859 201.71354 8.386354 201.404759 8.695135 
C 201.095979 9.003916 200.922483 9.422771 200.922483 9.859453 
C 200.922483 10.296135 201.095979 10.71499 201.404759 11.023771 
C 201.71354 11.332552 202.132396 11.506048 202.569077 11.506048 
L 202.569077 11.506048 
z
" clip-path="url(#p81bf9400ed)" style="fill: none; stroke: #000000; stroke-opacity: 0.45; stroke-width: 0.32"/>
    <path d="M 246.104237 206.355335 
C 246.755545 206.355335 247.380264 206.096568 247.840808 205.636024 
C 248.301352 205.17548 248.560119 204.550761 248.560119 203.899453 
C 248.560119 203.248146 248.301352 202.623426 247.840808 202.162882 
C 247.380264 201.702338 246.755545 201.443571 246.104237 201.443571 
C 245.45293 201.443571 244.828211 201.702338 244.367667 202.162882 
C 243.907123 202.623426 243.648356 203.248146 243.648356 203.899453 
C 243.648356 204.550761 243.907123 205.17548 244.367667 205.636024 
C 244.828211 206.096568 245.45293 206.355335 246.104237 206.355335 
L 246.104237 206.355335 
z
" clip-path="url(#p81bf9400ed)" style="fill: none; stroke: #000000; stroke-opacity: 0.45; stroke-width: 0.32"/>
    <path d="M 246.104237 166.61075 
C 246.50716 166.61075 246.893634 166.450668 247.178543 166.165759 
C 247.463452 165.880849 247.623535 165.494375 247.623535 165.091453 
C 247.623535 164.688531 247.463452 164.302057 247.178543 164.017148 
C 246.893634 163.732239 246.50716 163.572156 246.104237 163.572156 
C 245.701315 163.572156 245.314841 163.732239 245.029932 164.017148 
C 244.745023 164.302057 244.58494 164.688531 244.58494 165.091453 
C 244.58494 165.494375 244.745023 165.880849 245.029932 166.165759 
C 245.314841 166.450668 245.701315 166.61075 246.104237 166.61075 
L 246.104237 166.61075 
z
" clip-path="url(#p81bf9400ed)" style="fill: none; stroke: #000000; stroke-opacity: 0.45; stroke-width: 0.32"/>
    <path d="M 246.104237 127.971038 
C 246.55179 127.971038 246.981073 127.793224 247.29754 127.476756 
C 247.614008 127.160288 247.791823 126.731006 247.791823 126.283453 
C 247.791823 125.8359 247.614008 125.406618 247.29754 125.09015 
C 246.981073 124.773683 246.55179 124.595868 246.104237 124.595868 
C 245.656685 124.595868 245.227402 124.773683 244.910935 125.09015 
C 244.594467 125.406618 244.416652 125.8359 244.416652 126.283453 
C 244.416652 126.731006 244.594467 127.160288 244.910935 127.476756 
C 245.227402 127.793224 245.656685 127.971038 246.104237 127.971038 
L 246.104237 127.971038 
z
" clip-path="url(#p81bf9400ed)" style="fill: none; stroke: #000000; stroke-opacity: 0.45; stroke-width: 0.32"/>
    <path d="M 246.104237 108.33931 
C 246.491396 108.33931 246.86275 108.18549 247.136512 107.911728 
C 247.410274 107.637965 247.564094 107.266612 247.564094 106.879453 
C 247.564094 106.492295 247.410274 106.120941 247.136512 105.847179 
C 246.86275 105.573416 246.491396 105.419597 246.104237 105.419597 
C 245.717079 105.419597 245.345725 105.573416 245.071963 105.847179 
C 244.798201 106.120941 244.644381 106.492295 244.644381 106.879453 
C 244.644381 107.266612 244.798201 107.637965 245.071963 107.911728 
C 245.345725 108.18549 245.717079 108.33931 246.104237 108.33931 
L 246.104237 108.33931 
z
" clip-path="url(#p81bf9400ed)" style="fill: none; stroke: #000000; stroke-opacity: 0.45; stroke-width: 0.32"/>
    <path d="M 246.104237 98.90067 
C 246.56124 98.90067 246.999586 98.719101 247.322736 98.395951 
C 247.645885 98.072802 247.827454 97.634456 247.827454 97.177453 
C 247.827454 96.720451 247.645885 96.282104 247.322736 95.958955 
C 246.999586 95.635805 246.56124 95.454236 246.104237 95.454236 
C 245.647235 95.454236 245.208889 95.635805 244.885739 95.958955 
C 244.56259 96.282104 244.381021 96.720451 244.381021 97.177453 
C 244.381021 97.634456 244.56259 98.072802 244.885739 98.395951 
C 245.208889 98.719101 245.647235 98.90067 246.104237 98.90067 
L 246.104237 98.90067 
z
" clip-path="url(#p81bf9400ed)" style="fill: none; stroke: #000000; stroke-opacity: 0.45; stroke-width: 0.32"/>
    <path d="M 246.104237 89.169896 
C 246.553609 89.169896 246.984636 88.991359 247.30239 88.673605 
C 247.620143 88.355852 247.798681 87.924825 247.798681 87.475453 
C 247.798681 87.026082 247.620143 86.595055 247.30239 86.277301 
C 246.984636 85.959547 246.553609 85.78101 246.104237 85.78101 
C 245.654866 85.78101 245.223839 85.959547 244.906085 86.277301 
C 244.588332 86.595055 244.409794 87.026082 244.409794 87.475453 
C 244.409794 87.924825 244.588332 88.355852 244.906085 88.673605 
C 245.223839 88.991359 245.654866 89.169896 246.104237 89.169896 
L 246.104237 89.169896 
z
" clip-path="url(#p81bf9400ed)" style="fill: none; stroke: #000000; stroke-opacity: 0.45; stroke-width: 0.32"/>
    <path d="M 246.104237 50.369963 
C 246.555748 50.369963 246.988827 50.190576 247.308094 49.871309 
C 247.62736 49.552043 247.806747 49.118964 247.806747 48.667453 
C 247.806747 48.215942 247.62736 47.782863 247.308094 47.463597 
C 246.988827 47.144331 246.555748 46.964944 246.104237 46.964944 
C 245.652727 46.964944 245.219648 47.144331 244.900381 47.463597 
C 244.581115 47.782863 244.401728 48.215942 244.401728 48.667453 
C 244.401728 49.118964 244.581115 49.552043 244.900381 49.871309 
C 245.219648 50.190576 245.652727 50.369963 246.104237 50.369963 
L 246.104237 50.369963 
z
" clip-path="url(#p81bf9400ed)" style="fill: none; stroke: #000000; stroke-opacity: 0.45; stroke-width: 0.32"/>
    <path d="M 246.104237 12.147678 
C 246.711082 12.147678 247.293153 11.906576 247.722257 11.477472 
C 248.15136 11.048369 248.392462 10.466297 248.392462 9.859453 
C 248.392462 9.252609 248.15136 8.670538 247.722257 8.241434 
C 247.293153 7.81233 246.711082 7.571228 246.104237 7.571228 
C 245.497393 7.571228 244.915322 7.81233 244.486218 8.241434 
C 244.057115 8.670538 243.816013 9.252609 243.816013 9.859453 
C 243.816013 10.466297 244.057115 11.048369 244.486218 11.477472 
C 244.915322 11.906576 245.497393 12.147678 246.104237 12.147678 
L 246.104237 12.147678 
z
" clip-path="url(#p81bf9400ed)" style="fill: none; stroke: #000000; stroke-opacity: 0.45; stroke-width: 0.32"/>
   </g>
   <g id="matplotlib.axis_1">
    <g id="xtick_1">
     <g id="line2d_1">
      <defs>
       <path id="m03a2ae214a" d="M 0 0 
L 0 2.5 
" style="stroke: #000000; stroke-width: 0.7"/>
      </defs>
      <g>
       <use xlink:href="#m03a2ae214a" x="28.428438" y="203.899453" style="stroke: #000000; stroke-width: 0.7"/>
      </g>
     </g>
     <g id="text_1">
      <text style="font-size: 7px; font-family: 'Arial', 'DejaVu Sans', 'Liberation Sans', sans-serif; text-anchor: middle" x="28.428438" y="215.218359" transform="rotate(-0 28.428438 215.218359)">0</text>
     </g>
    </g>
    <g id="xtick_2">
     <g id="line2d_2">
      <g>
       <use xlink:href="#m03a2ae214a" x="71.963598" y="203.899453" style="stroke: #000000; stroke-width: 0.7"/>
      </g>
     </g>
     <g id="text_2">
      <text style="font-size: 7px; font-family: 'Arial', 'DejaVu Sans', 'Liberation Sans', sans-serif; text-anchor: middle" x="71.963598" y="215.218359" transform="rotate(-0 71.963598 215.218359)">1</text>
     </g>
    </g>
    <g id="xtick_3">
     <g id="line2d_3">
      <g>
       <use xlink:href="#m03a2ae214a" x="115.498758" y="203.899453" style="stroke: #000000; stroke-width: 0.7"/>
      </g>
     </g>
     <g id="text_3">
      <text style="font-size: 7px; font-family: 'Arial', 'DejaVu Sans', 'Liberation Sans', sans-serif; text-anchor: middle" x="115.498758" y="215.218359" transform="rotate(-0 115.498758 215.218359)">2</text>
     </g>
    </g>
    <g id="xtick_4">
     <g id="line2d_4">
      <g>
       <use xlink:href="#m03a2ae214a" x="159.033918" y="203.899453" style="stroke: #000000; stroke-width: 0.7"/>
      </g>
     </g>
     <g id="text_4">
      <text style="font-size: 7px; font-family: 'Arial', 'DejaVu Sans', 'Liberation Sans', sans-serif; text-anchor: middle" x="159.033918" y="215.218359" transform="rotate(-0 159.033918 215.218359)">3</text>
     </g>
    </g>
    <g id="xtick_5">
     <g id="line2d_5">
      <g>
       <use xlink:href="#m03a2ae214a" x="202.569077" y="203.899453" style="stroke: #000000; stroke-width: 0.7"/>
      </g>
     </g>
     <g id="text_5">
      <text style="font-size: 7px; font-family: 'Arial', 'DejaVu Sans', 'Liberation Sans', sans-serif; text-anchor: middle" x="202.569077" y="215.218359" transform="rotate(-0 202.569077 215.218359)">4</text>
     </g>
    </g>
    <g id="xtick_6">
     <g id="line2d_6">
      <g>
       <use xlink:href="#m03a2ae214a" x="246.104237" y="203.899453" style="stroke: #000000; stroke-width: 0.7"/>
      </g>
     </g>
     <g id="text_6">
      <text style="font-size: 7px; font-family: 'Arial', 'DejaVu Sans', 'Liberation Sans', sans-serif; text-anchor: middle" x="246.104237" y="215.218359" transform="rotate(-0 246.104237 215.218359)">5</text>
     </g>
    </g>
    <g id="text_7">
     <text style="font-size: 7px; font-family: 'Arial', 'DejaVu Sans', 'Liberation Sans', sans-serif; text-anchor: middle" x="137.266337" y="225.993047" transform="rotate(-0 137.266337 225.993047)">Desired WFH days per five-day week</text>
    </g>
   </g>
   <g id="matplotlib.axis_2">
    <g id="ytick_1">
     <g id="line2d_7">
      <defs>
       <path id="m50c128ae66" d="M 0 0 
L -2.5 0 
" style="stroke: #000000; stroke-width: 0.7"/>
      </defs>
      <g>
       <use xlink:href="#m50c128ae66" x="28.428438" y="203.899453" style="stroke: #000000; stroke-width: 0.7"/>
      </g>
     </g>
     <g id="text_8">
      <text style="font-size: 7px; font-family: 'Arial', 'DejaVu Sans', 'Liberation Sans', sans-serif; text-anchor: end" x="22.428438" y="206.558906" transform="rotate(-0 22.428438 206.558906)">0</text>
     </g>
    </g>
    <g id="ytick_2">
     <g id="line2d_8">
      <g>
       <use xlink:href="#m50c128ae66" x="28.428438" y="165.091453" style="stroke: #000000; stroke-width: 0.7"/>
      </g>
     </g>
     <g id="text_9">
      <text style="font-size: 7px; font-family: 'Arial', 'DejaVu Sans', 'Liberation Sans', sans-serif; text-anchor: end" x="22.428438" y="167.750906" transform="rotate(-0 22.428438 167.750906)">1</text>
     </g>
    </g>
    <g id="ytick_3">
     <g id="line2d_9">
      <g>
       <use xlink:href="#m50c128ae66" x="28.428438" y="126.283453" style="stroke: #000000; stroke-width: 0.7"/>
      </g>
     </g>
     <g id="text_10">
      <text style="font-size: 7px; font-family: 'Arial', 'DejaVu Sans', 'Liberation Sans', sans-serif; text-anchor: end" x="22.428438" y="128.942906" transform="rotate(-0 22.428438 128.942906)">2</text>
     </g>
    </g>
    <g id="ytick_4">
     <g id="line2d_10">
      <g>
       <use xlink:href="#m50c128ae66" x="28.428438" y="87.475453" style="stroke: #000000; stroke-width: 0.7"/>
      </g>
     </g>
     <g id="text_11">
      <text style="font-size: 7px; font-family: 'Arial', 'DejaVu Sans', 'Liberation Sans', sans-serif; text-anchor: end" x="22.428438" y="90.134906" transform="rotate(-0 22.428438 90.134906)">3</text>
     </g>
    </g>
    <g id="ytick_5">
     <g id="line2d_11">
      <g>
       <use xlink:href="#m50c128ae66" x="28.428438" y="48.667453" style="stroke: #000000; stroke-width: 0.7"/>
      </g>
     </g>
     <g id="text_12">
      <text style="font-size: 7px; font-family: 'Arial', 'DejaVu Sans', 'Liberation Sans', sans-serif; text-anchor: end" x="22.428438" y="51.326906" transform="rotate(-0 22.428438 51.326906)">4</text>
     </g>
    </g>
    <g id="ytick_6">
     <g id="line2d_12">
      <g>
       <use xlink:href="#m50c128ae66" x="28.428438" y="9.859453" style="stroke: #000000; stroke-width: 0.7"/>
      </g>
     </g>
     <g id="text_13">
      <text style="font-size: 7px; font-family: 'Arial', 'DejaVu Sans', 'Liberation Sans', sans-serif; text-anchor: end" x="22.428438" y="12.518906" transform="rotate(-0 22.428438 12.518906)">5</text>
     </g>
    </g>
    <g id="text_14">
     <text style="font-size: 7px; font-family: 'Arial', 'DejaVu Sans', 'Liberation Sans', sans-serif; text-anchor: middle" x="12.518906" y="106.879453" transform="rotate(-90 12.518906 106.879453)">Employer-planned WFH days per five-day week</text>
    </g>
   </g>
   <g id="QuadContourSet_2">
    <path clip-path="url(#p81bf9400ed)" style="fill: none; stroke: #ffffff; stroke-opacity: 0.75; stroke-width: 0.45"/>
    <path d="M 206.197007 13.000535 
L 202.569077 12.073987 
L 198.941147 11.063093 
" clip-path="url(#p81bf9400ed)" style="fill: none; stroke: #ffffff; stroke-opacity: 0.75; stroke-width: 0.45"/>
    <path d="M 246.104237 51.624048 
L 243.419879 51.901453 
" clip-path="url(#p81bf9400ed)" style="fill: none; stroke: #ffffff; stroke-opacity: 0.75; stroke-width: 0.45"/>
    <path d="M 113.465585 161.857453 
L 111.870827 164.225787 
M 206.197007 94.961129 
L 202.569077 96.31996 
L 200.341357 97.177453 
L 198.941147 97.727249 
" clip-path="url(#p81bf9400ed)" style="fill: none; stroke: #ffffff; stroke-opacity: 0.75; stroke-width: 0.45"/>
    <path d="M 162.661847 163.808329 
L 161.322824 165.091453 
L 159.033918 167.337044 
L 158.04792 168.325453 
" clip-path="url(#p81bf9400ed)" style="fill: none; stroke: #ffffff; stroke-opacity: 0.75; stroke-width: 0.45"/>
    <path clip-path="url(#p81bf9400ed)" style="fill: none; stroke: #ffffff; stroke-opacity: 0.75; stroke-width: 0.45"/>
    <path d="M 203.441339 200.665453 
L 202.569077 201.482832 
L 200.029809 203.899453 
M 246.104237 167.234651 
L 244.457674 168.325453 
" clip-path="url(#p81bf9400ed)" style="fill: none; stroke: #ffffff; stroke-opacity: 0.75; stroke-width: 0.45"/>
    <path clip-path="url(#p81bf9400ed)" style="fill: none; stroke: #ffffff; stroke-opacity: 0.75; stroke-width: 0.45"/>
    <path clip-path="url(#p81bf9400ed)" style="fill: none; stroke: #ffffff; stroke-opacity: 0.75; stroke-width: 0.45"/>
   </g>
   <g id="line2d_13">
    <path d="M 28.428438 203.899453 
L 246.104237 9.859453 
" clip-path="url(#p81bf9400ed)" style="fill: none; stroke: #0f4d92; stroke-width: 1.2; stroke-linecap: square"/>
   </g>
   <g id="patch_3">
    <path d="M 28.428438 203.899453 
L 28.428438 9.859453 
" style="fill: none; stroke: #000000; stroke-width: 0.8; stroke-linejoin: miter; stroke-linecap: square"/>
   </g>
   <g id="patch_4">
    <path d="M 28.428438 203.899453 
L 246.104237 203.899453 
" style="fill: none; stroke: #000000; stroke-width: 0.8; stroke-linejoin: miter; stroke-linecap: square"/>
   </g>
   <g id="legend_1">
    <g id="line2d_14">
     <path d="M 33.468438 17.194578 
L 39.068438 17.194578 
L 44.668438 17.194578 
" style="fill: none; stroke: #0f4d92; stroke-width: 1.2; stroke-linecap: square"/>
    </g>
    <g id="text_15">
     <text style="font-size: 5.6px; font-family: 'Arial', 'DejaVu Sans', 'Liberation Sans', sans-serif; text-anchor: start" x="49.148438" y="19.154578" transform="rotate(-0 49.148438 19.154578)">Desired = planned</text>
    </g>
    <g id="PathCollection_2">
     <path d="M 39.068438 28.215212 
C 39.681291 28.215212 40.269126 27.971723 40.702479 27.53837 
C 41.135832 27.105017 41.379321 26.517182 41.379321 25.904328 
C 41.379321 25.291475 41.135832 24.703639 40.702479 24.270286 
C 40.269126 23.836934 39.681291 23.593444 39.068438 23.593444 
C 38.455584 23.593444 37.867749 23.836934 37.434396 24.270286 
C 37.001043 24.703639 36.757554 25.291475 36.757554 25.904328 
C 36.757554 26.517182 37.001043 27.105017 37.434396 27.53837 
C 37.867749 27.971723 38.455584 28.215212 39.068438 28.215212 
L 39.068438 28.215212 
z
" style="fill: none; stroke: #000000; stroke-opacity: 0.45; stroke-width: 0.32"/>
    </g>
    <g id="text_16">
     <text style="font-size: 5.6px; font-family: 'Arial', 'DejaVu Sans', 'Liberation Sans', sans-serif; text-anchor: start" x="49.148438" y="27.374328" transform="rotate(-0 49.148438 27.374328)">Observed cells (N &gt;= 30)</text>
    </g>
   </g>
  </g>
  <g id="axes_2">
   <g id="patch_5">
    <path d="M 251.349437 203.899453 
L 261.051438 203.899453 
L 261.051438 9.859453 
L 251.349437 9.859453 
z
" style="fill: #ffffff"/>
   </g>
   <g id="QuadMesh_1">
    <path d="M 251.349437 203.899453 
L 261.051438 203.899453 
L 261.051438 186.259453 
L 251.349437 186.259453 
L 251.349437 203.899453 
" clip-path="url(#p472327d28b)" style="fill: #fff9bd"/>
    <path d="M 251.349437 186.259453 
L 261.051438 186.259453 
L 261.051438 168.619453 
L 251.349437 168.619453 
L 251.349437 186.259453 
" clip-path="url(#p472327d28b)" style="fill: #ffec9d"/>
    <path d="M 251.349437 168.619453 
L 261.051438 168.619453 
L 261.051438 150.979453 
L 251.349437 150.979453 
L 251.349437 168.619453 
" clip-path="url(#p472327d28b)" style="fill: #fedd7e"/>
    <path d="M 251.349437 150.979453 
L 261.051438 150.979453 
L 261.051438 133.339453 
L 251.349437 133.339453 
L 251.349437 150.979453 
" clip-path="url(#p472327d28b)" style="fill: #fec45f"/>
    <path d="M 251.349437 133.339453 
L 261.051438 133.339453 
L 261.051438 115.699453 
L 251.349437 115.699453 
L 251.349437 133.339453 
" clip-path="url(#p472327d28b)" style="fill: #fea848"/>
    <path d="M 251.349437 115.699453 
L 261.051438 115.699453 
L 261.051438 98.059453 
L 251.349437 98.059453 
L 251.349437 115.699453 
" clip-path="url(#p472327d28b)" style="fill: #fd8c3c"/>
    <path d="M 251.349437 98.059453 
L 261.051438 98.059453 
L 261.051438 80.419453 
L 251.349437 80.419453 
L 251.349437 98.059453 
" clip-path="url(#p472327d28b)" style="fill: #fc5f2f"/>
    <path d="M 251.349437 80.419453 
L 261.051438 80.419453 
L 261.051438 62.779453 
L 251.349437 62.779453 
L 251.349437 80.419453 
" clip-path="url(#p472327d28b)" style="fill: #f13624"/>
    <path d="M 251.349437 62.779453 
L 261.051438 62.779453 
L 261.051438 45.139453 
L 251.349437 45.139453 
L 251.349437 62.779453 
" clip-path="url(#p472327d28b)" style="fill: #dc151e"/>
    <path d="M 251.349437 45.139453 
L 261.051438 45.139453 
L 261.051438 27.499453 
L 251.349437 27.499453 
L 251.349437 45.139453 
" clip-path="url(#p472327d28b)" style="fill: #c00225"/>
    <path d="M 251.349437 27.499453 
L 261.051438 27.499453 
L 261.051438 9.859453 
L 251.349437 9.859453 
L 251.349437 27.499453 
" clip-path="url(#p472327d28b)" style="fill: #950026"/>
   </g>
   <g id="matplotlib.axis_3"/>
   <g id="matplotlib.axis_4">
    <g id="ytick_7">
     <g id="line2d_15">
      <defs>
       <path id="m113494d3b2" d="M 0 0 
L 2.5 0 
" style="stroke: #000000; stroke-width: 0.7"/>
      </defs>
      <g>
       <use xlink:href="#m113494d3b2" x="261.051438" y="203.899453" style="stroke: #000000; stroke-width: 0.7"/>
      </g>
     </g>
     <g id="text_17">
      <text style="font-size: 6px; font-family: 'Arial', 'DejaVu Sans', 'Liberation Sans', sans-serif; text-anchor: start" x="267.051438" y="206.178984" transform="rotate(-0 267.051438 206.178984)">0.08</text>
     </g>
    </g>
    <g id="ytick_8">
     <g id="line2d_16">
      <g>
       <use xlink:href="#m113494d3b2" x="261.051438" y="168.619453" style="stroke: #000000; stroke-width: 0.7"/>
      </g>
     </g>
     <g id="text_18">
      <text style="font-size: 6px; font-family: 'Arial', 'DejaVu Sans', 'Liberation Sans', sans-serif; text-anchor: start" x="267.051438" y="170.898984" transform="rotate(-0 267.051438 170.898984)">0.12</text>
     </g>
    </g>
    <g id="ytick_9">
     <g id="line2d_17">
      <g>
       <use xlink:href="#m113494d3b2" x="261.051438" y="133.339453" style="stroke: #000000; stroke-width: 0.7"/>
      </g>
     </g>
     <g id="text_19">
      <text style="font-size: 6px; font-family: 'Arial', 'DejaVu Sans', 'Liberation Sans', sans-serif; text-anchor: start" x="267.051438" y="135.618984" transform="rotate(-0 267.051438 135.618984)">0.16</text>
     </g>
    </g>
    <g id="ytick_10">
     <g id="line2d_18">
      <g>
       <use xlink:href="#m113494d3b2" x="261.051438" y="98.059453" style="stroke: #000000; stroke-width: 0.7"/>
      </g>
     </g>
     <g id="text_20">
      <text style="font-size: 6px; font-family: 'Arial', 'DejaVu Sans', 'Liberation Sans', sans-serif; text-anchor: start" x="267.051438" y="100.338984" transform="rotate(-0 267.051438 100.338984)">0.20</text>
     </g>
    </g>
    <g id="ytick_11">
     <g id="line2d_19">
      <g>
       <use xlink:href="#m113494d3b2" x="261.051438" y="62.779453" style="stroke: #000000; stroke-width: 0.7"/>
      </g>
     </g>
     <g id="text_21">
      <text style="font-size: 6px; font-family: 'Arial', 'DejaVu Sans', 'Liberation Sans', sans-serif; text-anchor: start" x="267.051438" y="65.058984" transform="rotate(-0 267.051438 65.058984)">0.24</text>
     </g>
    </g>
    <g id="ytick_12">
     <g id="line2d_20">
      <g>
       <use xlink:href="#m113494d3b2" x="261.051438" y="27.499453" style="stroke: #000000; stroke-width: 0.7"/>
      </g>
     </g>
     <g id="text_22">
      <text style="font-size: 6px; font-family: 'Arial', 'DejaVu Sans', 'Liberation Sans', sans-serif; text-anchor: start" x="267.051438" y="29.778984" transform="rotate(-0 267.051438 29.778984)">0.28</text>
     </g>
    </g>
    <g id="text_23">
     <text style="font-size: 6.5px; font-family: 'Arial', 'DejaVu Sans', 'Liberation Sans', sans-serif; text-anchor: middle" x="289.349797" y="106.879453" transform="rotate(-90 289.349797 106.879453)">Predicted job dissatisfaction</text>
    </g>
   </g>
   <g id="LineCollection_1"/>
   <g id="patch_6">
    <path d="M 251.349437 203.899453 
L 256.200437 203.899453 
L 261.051438 203.899453 
L 261.051438 9.859453 
L 256.200437 9.859453 
L 251.349437 9.859453 
L 251.349437 203.899453 
z
" style="fill: none; stroke: #000000; stroke-width: 0.8; stroke-linejoin: miter; stroke-linecap: square"/>
   </g>
  </g>
 </g>
 <defs>
  <clipPath id="p81bf9400ed">
   <rect x="28.428438" y="9.859453" width="217.6758" height="194.04"/>
  </clipPath>
  <clipPath id="p472327d28b">
   <rect x="251.349437" y="9.859453" width="9.702" height="194.04"/>
  </clipPath>
 </defs>
</svg>
